<svg id="Capa_1" enable-background="new 0 0 511.918 511.918" height="512" viewBox="0 0 511.918 511.918" width="512" xmlns="http://www.w3.org/2000/svg"><g><path d="m107.335 171.945c-4.142 0-7.5 3.358-7.5 7.5v6.205c0 4.142 3.358 7.5 7.5 7.5s7.5-3.358 7.5-7.5v-6.205c0-4.142-3.358-7.5-7.5-7.5z"/><path d="m107.335 318.768c-4.142 0-7.5 3.358-7.5 7.5v6.205c0 4.142 3.358 7.5 7.5 7.5s7.5-3.358 7.5-7.5v-6.205c0-4.142-3.358-7.5-7.5-7.5z"/><path d="m187.512 118.994h-9.208c-4.142 0-7.5 3.358-7.5 7.5s3.358 7.5 7.5 7.5h9.208c12.287 0 22.283 9.996 22.283 22.283v29.373c0 4.142 3.358 7.5 7.5 7.5s7.5-3.358 7.5-7.5v-29.373c0-20.558-16.725-37.283-37.283-37.283z"/><path d="m154.149 200.735c-4.99 0-9.049-4.06-9.049-9.049v-24.792c0-4.142-3.358-7.5-7.5-7.5s-7.5 3.358-7.5 7.5v24.792c0 13.261 10.789 24.049 24.049 24.049 4.142 0 7.5-3.358 7.5-7.5s-3.357-7.5-7.5-7.5z"/><path d="m217.295 318.768c-4.142 0-7.5 3.358-7.5 7.5v29.373c0 12.287-9.996 22.283-22.283 22.283h-9.208c-4.142 0-7.5 3.358-7.5 7.5s3.358 7.5 7.5 7.5h9.208c20.558 0 37.283-16.725 37.283-37.283v-29.373c0-4.142-3.358-7.5-7.5-7.5z"/><path d="m154.149 296.183c-13.261 0-24.049 10.789-24.049 24.049v24.792c0 4.142 3.358 7.5 7.5 7.5s7.5-3.358 7.5-7.5v-24.792c0-4.99 4.06-9.049 9.049-9.049 4.142 0 7.5-3.358 7.5-7.5s-3.357-7.5-7.5-7.5z"/><path d="m311.105 187.518c-4.142 0-7.5 3.358-7.5 7.5s3.358 7.5 7.5 7.5h11.553c4.142 0 7.5-3.358 7.5-7.5s-3.358-7.5-7.5-7.5z"/><path d="m382.817 187.518h-28.196c-4.142 0-7.5 3.358-7.5 7.5s3.358 7.5 7.5 7.5h31.303c1.989 0 3.897-.79 5.303-2.197l42.38-42.381c2.146.722 4.435 1.131 6.821 1.131 11.828 0 21.451-9.623 21.451-21.451s-9.623-21.451-21.451-21.451c-11.829 0-21.452 9.623-21.452 21.451 0 3.938 1.085 7.619 2.944 10.794zm57.611-56.35c3.557 0 6.451 2.894 6.451 6.451s-2.894 6.451-6.451 6.451c-3.558 0-6.452-2.894-6.452-6.451s2.895-6.451 6.452-6.451z"/><path d="m490.467 255.813c-9.187 0-17.021 5.816-20.071 13.951h-206.629v-23.567h158.854c1.989 0 3.896-.79 5.303-2.197l16.223-16.223c2.251.804 4.664 1.265 7.188 1.265 11.828 0 21.451-9.623 21.451-21.451s-9.623-21.451-21.451-21.451c-11.829 0-21.452 9.623-21.452 21.451 0 3.807 1.008 7.379 2.755 10.482l-13.124 13.123h-155.747v-28.68h15.376c4.142 0 7.5-3.358 7.5-7.5s-3.358-7.5-7.5-7.5h-15.376v-31.105h68.268c1.989 0 3.897-.79 5.303-2.197l18.765-18.765c2.168.739 4.482 1.158 6.896 1.158 11.828 0 21.451-9.623 21.451-21.451s-9.623-21.451-21.451-21.451-21.451 9.623-21.451 21.451c0 3.911 1.069 7.569 2.905 10.73l-15.525 15.525h-65.161v-52.789c0-28.05-22.821-50.871-50.871-50.871-19.46 0-36.789 10.879-45.347 27.774-5.422-1.918-11.166-2.914-16.951-2.914-26.057 0-47.582 19.738-50.432 45.046h-4.18c-27.007 0-48.979 21.972-48.979 48.979 0 9.59 2.797 18.83 7.913 26.689-13.373 3.776-25.517 11.211-35.078 21.633-12.795 13.949-19.842 32.061-19.842 51.001s7.047 37.052 19.842 50.999c9.561 10.422 21.705 17.857 35.078 21.633-5.116 7.86-7.913 17.099-7.913 26.689 0 27.007 21.972 48.979 48.979 48.979h4.18c2.851 25.308 24.375 45.046 50.432 45.046 5.785 0 11.529-.995 16.951-2.914 8.559 16.896 25.887 27.774 45.347 27.774 28.05 0 50.871-22.821 50.871-50.871v-52.791h65.161l15.525 15.525c-1.836 3.161-2.905 6.819-2.905 10.73 0 11.828 9.623 21.451 21.451 21.451s21.451-9.623 21.451-21.451-9.623-21.451-21.451-21.451c-2.415 0-4.729.419-6.896 1.158l-18.765-18.765c-1.406-1.407-3.314-2.197-5.303-2.197h-68.268v-31.103h26.552c4.142 0 7.5-3.358 7.5-7.5s-3.358-7.5-7.5-7.5h-26.552v-24.636h206.628c3.051 8.135 10.884 13.952 20.072 13.952 11.828 0 21.451-9.623 21.451-21.452 0-11.827-9.623-21.451-21.451-21.451zm-39.132-54.672c3.557 0 6.451 2.894 6.451 6.451s-2.894 6.451-6.451 6.451c-3.558 0-6.452-2.894-6.452-6.451s2.895-6.451 6.452-6.451zm-88.336-92.434c3.557 0 6.451 2.894 6.451 6.451s-2.894 6.451-6.451 6.451-6.451-2.894-6.451-6.451 2.894-6.451 6.451-6.451zm6.451 288.053c0 3.557-2.894 6.451-6.451 6.451s-6.451-2.894-6.451-6.451 2.894-6.451 6.451-6.451 6.451 2.894 6.451 6.451zm-120.683 26.536c0 19.779-16.092 35.871-35.871 35.871-15.717 0-29.462-10.06-34.201-25.032-.679-2.146-2.285-3.872-4.375-4.705-2.092-.833-4.444-.682-6.412.409-5.271 2.922-11.257 4.467-17.31 4.467-19.72 0-35.763-16.043-35.763-35.763v-34.147c0-4.142-3.358-7.5-7.5-7.5s-7.5 3.358-7.5 7.5v24.864h-3.849c-18.736 0-33.979-15.243-33.979-33.979 0-9.994 4.382-19.441 12.023-25.921 2.303-1.954 3.21-5.098 2.301-7.978s-3.457-4.934-6.465-5.21c-14.942-1.375-28.782-8.249-38.97-19.354-10.251-11.173-15.896-25.684-15.896-40.859s5.645-29.686 15.896-40.859c10.188-11.105 24.028-17.979 38.97-19.354 3.008-.276 5.556-2.33 6.465-5.21.91-2.88.002-6.024-2.301-7.978-7.641-6.479-12.023-15.927-12.023-25.921 0-18.736 15.243-33.979 33.979-33.979h3.849v24.864c0 4.142 3.358 7.5 7.5 7.5s7.5-3.358 7.5-7.5v-34.147c0-19.72 16.043-35.763 35.763-35.763 6.053 0 12.039 1.545 17.31 4.467 1.967 1.09 4.32 1.241 6.412.409 2.09-.833 3.696-2.559 4.375-4.705 4.739-14.973 18.484-25.032 34.201-25.032 19.779 0 35.871 16.092 35.871 35.871zm241.7-139.58c-3.557 0-6.451-2.894-6.451-6.452 0-3.557 2.894-6.451 6.451-6.451s6.451 2.894 6.451 6.451c0 3.558-2.894 6.452-6.451 6.452z"/><path d="m440.428 352.847c-2.386 0-4.675.408-6.821 1.131l-42.38-42.381c-1.406-1.407-3.314-2.197-5.303-2.197h-63.642c-4.142 0-7.5 3.358-7.5 7.5s3.358 7.5 7.5 7.5h60.536l39.104 39.104c-1.859 3.175-2.944 6.856-2.944 10.794 0 11.828 9.623 21.451 21.452 21.451 11.828 0 21.451-9.623 21.451-21.451s-9.625-21.451-21.453-21.451zm0 27.903c-3.558 0-6.452-2.894-6.452-6.451s2.894-6.451 6.452-6.451c3.557 0 6.451 2.894 6.451 6.451s-2.894 6.451-6.451 6.451z"/></g></svg>